<mxfile host="app.diagrams.net" modified="2024-01-15T10:45:00.000Z" agent="5.0" etag="example" version="22.0.0">
  <diagram name="Faktöriyel Hesaplama" id="flowchart">
    <mxGraphModel dx="1422" dy="1400" grid="1" gridSize="10" guides="1" tooltips="1" connect="1" arrows="1" fold="1" page="1" pageScale="1" pageWidth="827" pageHeight="1169" math="0" shadow="0">
      <root>
        <mxCell id="0"/>
        <mxCell id="1" parent="0"/>
        
        <!-- BAŞLA -->
        <mxCell id="start" value="BAŞLA" style="ellipse;whiteSpace=wrap;html=1;fillColor=#d5e8d4;strokeColor=#82b366;" vertex="1" parent="1">
          <mxGeometry x="360" y="40" width="120" height="60" as="geometry"/>
        </mxCell>
        
        <!-- n sayısını al -->
        <mxCell id="input" value="n sayısını al" style="shape=parallelogram;perimeter=parallelogramPerimeter;whiteSpace=wrap;html=1;fixedSize=1;fillColor=#dae8fc;strokeColor=#6c8ebf;" vertex="1" parent="1">
          <mxGeometry x="340" y="140" width="160" height="60" as="geometry"/>
        </mxCell>
        
        <!-- n < 0 kontrolü -->
        <mxCell id="check_negative" value="n < 0 ?" style="rhombus;whiteSpace=wrap;html=1;fillColor=#e1d5e7;strokeColor=#9673a6;" vertex="1" parent="1">
          <mxGeometry x="360" y="240" width="120" height="80" as="geometry"/>
        </mxCell>
        
        <!-- Hata mesajı -->
        <mxCell id="error" value="&quot;HATA&quot;" style="shape=parallelogram;perimeter=parallelogramPerimeter;whiteSpace=wrap;html=1;fixedSize=1;fillColor=#f8cecc;strokeColor=#b85450;" vertex="1" parent="1">
          <mxGeometry x="160" y="250" width="120" height="60" as="geometry"/>
        </mxCell>
        
        <!-- n = 0 kontrolü -->
        <mxCell id="check_zero" value="n = 0 ?" style="rhombus;whiteSpace=wrap;html=1;fillColor=#e1d5e7;strokeColor=#9673a6;" vertex="1" parent="1">
          <mxGeometry x="360" y="380" width="120" height="80" as="geometry"/>
        </mxCell>
        
        <!-- 0! = 1 -->
        <mxCell id="zero_result" value="&quot;0! = 1&quot;" style="shape=parallelogram;perimeter=parallelogramPerimeter;whiteSpace=wrap;html=1;fixedSize=1;fillColor=#d5e8d4;strokeColor=#82b366;" vertex="1" parent="1">
          <mxGeometry x="580" y="390" width="120" height="60" as="geometry"/>
        </mxCell>
        
        <!-- Başlangıç değerleri -->
        <mxCell id="init" value="faktöriyel ← 1&#xa;i ← 1" style="rounded=0;whiteSpace=wrap;html=1;fillColor=#fff2cc;strokeColor=#d6b656;" vertex="1" parent="1">
          <mxGeometry x="340" y="520" width="160" height="60" as="geometry"/>
        </mxCell>
        
        <!-- Döngü koşulu -->
        <mxCell id="loop_condition" value="i <= n ?" style="rhombus;whiteSpace=wrap;html=1;fillColor=#e1d5e7;strokeColor=#9673a6;" vertex="1" parent="1">
          <mxGeometry x="360" y="620" width="120" height="80" as="geometry"/>
        </mxCell>
        
        <!-- Faktöriyel hesaplama -->
        <mxCell id="calculate" value="faktöriyel ← faktöriyel * i&#xa;i ← i + 1" style="rounded=0;whiteSpace=wrap;html=1;fillColor=#fff2cc;strokeColor=#d6b656;" vertex="1" parent="1">
          <mxGeometry x="320" y="760" width="200" height="60" as="geometry"/>
        </mxCell>
        
        <!-- Sonucu göster -->
        <mxCell id="output" value="sonucu göster" style="shape=parallelogram;perimeter=parallelogramPerimeter;whiteSpace=wrap;html=1;fixedSize=1;fillColor=#ffe6cc;strokeColor=#d79b00;" vertex="1" parent="1">
          <mxGeometry x="560" y="630" width="120" height="60" as="geometry"/>
        </mxCell>
        
        <!-- BITIR -->
        <mxCell id="end" value="BITIR" style="ellipse;whiteSpace=wrap;html=1;fillColor=#f8cecc;strokeColor=#b85450;" vertex="1" parent="1">
          <mxGeometry x="360" y="880" width="120" height="60" as="geometry"/>
        </mxCell>
        
        <!-- Connections -->
        <mxCell id="edge1" edge="1" parent="1" source="start" target="input">
          <mxGeometry relative="1" as="geometry"/>
        </mxCell>
        <mxCell id="edge2" edge="1" parent="1" source="input" target="check_negative">
          <mxGeometry relative="1" as="geometry"/>
        </mxCell>
        <mxCell id="edge3" edge="1" parent="1" source="check_negative" target="error">
          <mxGeometry relative="1" as="geometry"/>
          <mxCell id="labelYes1" value="EVET" style="edgeLabel;html=1;align=center;verticalAlign=middle;" vertex="1" connectable="0" parent="edge3">
            <mxGeometry relative="1" as="geometry"/>
          </mxCell>
        </mxCell>
        <mxCell id="edge4" edge="1" parent="1" source="check_negative" target="check_zero">
          <mxGeometry relative="1" as="geometry"/>
          <mxCell id="labelNo1" value="HAYIR" style="edgeLabel;html=1;align=center;verticalAlign=middle;" vertex="1" connectable="0" parent="edge4">
            <mxGeometry relative="1" as="geometry"/>
          </mxCell>
        </mxCell>
        <mxCell id="edge5" edge="1" parent="1" source="check_zero" target="zero_result">
          <mxGeometry relative="1" as="geometry"/>
          <mxCell id="labelYes2" value="EVET" style="edgeLabel;html=1;align=center;verticalAlign=middle;" vertex="1" connectable="0" parent="edge5">
            <mxGeometry relative="1" as="geometry"/>
          </mxCell>
        </mxCell>
        <mxCell id="edge6" edge="1" parent="1" source="check_zero" target="init">
          <mxGeometry relative="1" as="geometry"/>
          <mxCell id="labelNo2" value="HAYIR" style="edgeLabel;html=1;align=center;verticalAlign=middle;" vertex="1" connectable="0" parent="edge6">
            <mxGeometry relative="1" as="geometry"/>
          </mxCell>
        </mxCell>
        <mxCell id="edge7" edge="1" parent="1" source="init" target="loop_condition">
          <mxGeometry relative="1" as="geometry"/>
        </mxCell>
        <mxCell id="edge8" edge="1" parent="1" source="loop_condition" target="calculate">
          <mxGeometry relative="1" as="geometry"/>
          <mxCell id="labelYes3" value="EVET" style="edgeLabel;html=1;align=center;verticalAlign=middle;" vertex="1" connectable="0" parent="edge8">
            <mxGeometry relative="1" as="geometry"/>
          </mxCell>
        </mxCell>
        <mxCell id="edge9" edge="1" parent="1" source="loop_condition" target="output">
          <mxGeometry relative="1" as="geometry"/>
          <mxCell id="labelNo3" value="HAYIR" style="edgeLabel;html=1;align=center;verticalAlign=middle;" vertex="1" connectable="0" parent="edge9">
            <mxGeometry relative="1" as="geometry"/>
          </mxCell>
        </mxCell>
        <mxCell id="edge10" edge="1" parent="1" source="calculate" target="loop_condition">
          <mxGeometry relative="1" as="geometry">
            <Array as="points">
              <mxPoint x="280" y="790"/>
              <mxPoint x="280" y="660"/>
            </Array>
          </mxGeometry>
        </mxCell>
        <mxCell id="edge11" edge="1" parent="1" source="output" target="end">
          <mxGeometry relative="1" as="geometry"/>
        </mxCell>
        <mxCell id="edge12" edge="1" parent="1" source="error" target="end">
          <mxGeometry relative="1" as="geometry">
            <Array as="points">
              <mxPoint x="220" y="920"/>
            </Array>
          </mxGeometry>
        </mxCell>
        <mxCell id="edge13" edge="1" parent="1" source="zero_result" target="end">
          <mxGeometry relative="1" as="geometry">
            <Array as="points">
              <mxPoint x="640" y="920"/>
            </Array>
          </mxGeometry>
        </mxCell>
        
      </root>
    </mxGraphModel>
  </diagram>
</mxfile>